<svg xmlns="http://www.w3.org/2000/svg" xmlns:xlink="http://www.w3.org/1999/xlink" width="1024" height="620" viewBox="0 0 1024 620">
  <defs>
    <style>
      .cls-1 {
        isolation: isolate;
      }

      .cls-2 {
        fill: none;
      }

      .cls-3 {
        fill: #e2eafb;
      }

      .cls-4 {
        fill: #cbdcf9;
      }

      .cls-5 {
        fill: #f9faff;
      }

      .cls-6 {
        fill: #80a6f5;
      }

      .cls-7 {
        fill: #9ebbfa;
      }

      .cls-8 {
        fill: #b7cff8;
      }

      .cls-25, .cls-34, .cls-9 {
        fill: #207bff;
      }

      .cls-26, .cls-9 {
        opacity: 0.4;
      }

      .cls-10 {
        fill: #004bff;
        opacity: 0.5;
        mix-blend-mode: multiply;
      }

      .cls-11 {
        fill: #c4d7f9;
      }

      .cls-12 {
        fill: url(#_ÂÁ_Ï_ÌÌ_È_ËÂÌÚ_3);
      }

      .cls-13 {
        fill: #4aeaff;
      }

      .cls-14, .cls-33 {
        fill: #fff;
      }

      .cls-15 {
        fill: #bdf8ff;
      }

      .cls-16 {
        fill: url(#linear-gradient);
      }

      .cls-17 {
        fill: #eb1c24;
      }

      .cls-18 {
        fill: url(#linear-gradient-2);
      }

      .cls-19 {
        fill: url(#linear-gradient-3);
      }

      .cls-20 {
        fill: url(#linear-gradient-4);
      }

      .cls-21 {
        fill: url(#linear-gradient-5);
      }

      .cls-22 {
        fill: url(#linear-gradient-6);
      }

      .cls-23 {
        fill: url(#linear-gradient-7);
      }

      .cls-24 {
        fill: #92b3fa;
      }

      .cls-26 {
        mix-blend-mode: lighten;
        fill: url(#radial-gradient);
      }

      .cls-27 {
        fill: #00ffda;
      }

      .cls-28 {
        fill: #7fd1ca;
      }

      .cls-29 {
        fill: #1e1e1e;
      }

      .cls-30 {
        fill: url(#_ÂÁ_Ï_ÌÌ_È_ËÂÌÚ_14);
      }

      .cls-31 {
        fill: url(#_ÂÁ_Ï_ÌÌ_È_ËÂÌÚ_2);
      }

      .cls-32 {
        fill: #4880f7;
      }

      .cls-33 {
        opacity: 0.8;
      }

      .cls-34 {
        opacity: 0.72;
      }

      .cls-35, .cls-36, .cls-37, .cls-38 {
        fill: #3ae5fa;
      }

      .cls-35, .cls-39 {
        opacity: 0.1;
      }

      .cls-36 {
        opacity: 0.3;
      }

      .cls-38 {
        opacity: 0.7;
      }

      .cls-39, .cls-40 {
        fill: #51b2fb;
      }

      .cls-40 {
        opacity: 0.2;
      }
    </style>
    <radialGradient id="_ÂÁ_Ï_ÌÌ_È_ËÂÌÚ_3" data-name="¡ÂÁ˚ÏˇÌÌ˚È „‡‰ËÂÌÚ 3" cx="3044.47" cy="266.32" r="5.34" gradientTransform="translate(-2880.82)" gradientUnits="userSpaceOnUse">
      <stop offset="0" stop-color="#4aeaff"/>
      <stop offset="1" stop-color="#00709d"/>
    </radialGradient>
    <linearGradient id="linear-gradient" x1="414.51" y1="173.02" x2="414.51" y2="202.48" gradientTransform="translate(-242.09)" gradientUnits="userSpaceOnUse">
      <stop offset="0.02" stop-color="#dc2a21"/>
      <stop offset="0.06" stop-color="#c7201b"/>
      <stop offset="0.1" stop-color="#b61717"/>
      <stop offset="0.15" stop-color="#ab1113"/>
      <stop offset="0.22" stop-color="#a40e12"/>
      <stop offset="0.43" stop-color="#a20d11"/>
      <stop offset="0.79" stop-color="#6b0006"/>
    </linearGradient>
    <linearGradient id="linear-gradient-2" x1="405.96" y1="174.34" x2="405.96" y2="195.48" gradientTransform="translate(-242.09)" gradientUnits="userSpaceOnUse">
      <stop offset="0" stop-color="#ac1a27"/>
      <stop offset="0.08" stop-color="#9e151f"/>
      <stop offset="0.28" stop-color="#7d0a0e"/>
      <stop offset="0.44" stop-color="#680304"/>
      <stop offset="0.56" stop-color="#610000"/>
      <stop offset="0.73" stop-color="#520000"/>
      <stop offset="1" stop-color="#3f0000"/>
    </linearGradient>
    <linearGradient id="linear-gradient-3" x1="532.12" y1="185.22" x2="546.24" y2="185.22" gradientTransform="matrix(-1, 0, 0, 1, 728.44, 0)" gradientUnits="userSpaceOnUse">
      <stop offset="0" stop-color="#bd1349"/>
      <stop offset="0.24" stop-color="#bd124e"/>
      <stop offset="0.25" stop-color="#bd124e"/>
      <stop offset="1" stop-color="#7a0025"/>
    </linearGradient>
    <linearGradient id="linear-gradient-4" x1="528.01" y1="192.25" x2="546.3" y2="192.25" gradientTransform="matrix(-1, 0, 0, 1, 728.44, 0)" gradientUnits="userSpaceOnUse">
      <stop offset="0" stop-color="#282880"/>
      <stop offset="0.27" stop-color="#26257c"/>
      <stop offset="0.56" stop-color="#1f1b6f"/>
      <stop offset="0.85" stop-color="#140b5a"/>
      <stop offset="1" stop-color="#0d004c"/>
    </linearGradient>
    <linearGradient id="linear-gradient-5" x1="532.33" y1="192.25" x2="546.24" y2="192.25" xlink:href="#linear-gradient-3"/>
    <linearGradient id="linear-gradient-6" x1="535.15" y1="185.16" x2="552.62" y2="185.16" xlink:href="#linear-gradient-4"/>
    <linearGradient id="linear-gradient-7" x1="419.29" y1="191.55" x2="419.29" y2="181.54" gradientTransform="translate(-242.09)" gradientUnits="userSpaceOnUse">
      <stop offset="0" stop-color="#ec2d24"/>
      <stop offset="0.12" stop-color="#ec2824"/>
      <stop offset="0.25" stop-color="#eb1c24"/>
      <stop offset="1" stop-color="#74020d"/>
    </linearGradient>
    <radialGradient id="radial-gradient" cx="3236.34" cy="391.8" r="10.62" gradientTransform="matrix(0.74, 0.02, -0.03, 0.82, -2288.1, -206.49)" gradientUnits="userSpaceOnUse">
      <stop offset="0" stop-color="#00ddde" stop-opacity="0.52"/>
      <stop offset="0.09" stop-color="#2de6e7" stop-opacity="0.65"/>
      <stop offset="0.2" stop-color="#63f1f1" stop-opacity="0.8"/>
      <stop offset="0.3" stop-color="#8af8f9" stop-opacity="0.91"/>
      <stop offset="0.38" stop-color="#a2fdfd" stop-opacity="0.98"/>
      <stop offset="0.43" stop-color="#abffff"/>
      <stop offset="0.46" stop-color="#9ffcfd"/>
      <stop offset="0.51" stop-color="#7ff6f6"/>
      <stop offset="0.58" stop-color="#4aebeb"/>
      <stop offset="0.66" stop-color="#03dcdd"/>
      <stop offset="0.66" stop-color="#00dbdc"/>
      <stop offset="0.69" stop-color="#08dcdd" stop-opacity="0.97"/>
      <stop offset="0.74" stop-color="#1fdfe0" stop-opacity="0.88"/>
      <stop offset="0.8" stop-color="#44e5e5" stop-opacity="0.73"/>
      <stop offset="0.87" stop-color="#78eced" stop-opacity="0.53"/>
      <stop offset="0.94" stop-color="#baf5f6" stop-opacity="0.27"/>
      <stop offset="1" stop-color="#fff" stop-opacity="0"/>
    </radialGradient>
    <linearGradient id="_ÂÁ_Ï_ÌÌ_È_ËÂÌÚ_14" data-name="¡ÂÁ˚ÏˇÌÌ˚È „‡‰ËÂÌÚ 14" x1="2975.49" y1="251.72" x2="3034.93" y2="251.72" gradientTransform="translate(-2856.17 13.43) rotate(-2.88)" gradientUnits="userSpaceOnUse">
      <stop offset="0" stop-color="#003a6b"/>
      <stop offset="1" stop-color="#00204c"/>
    </linearGradient>
    <linearGradient id="_ÂÁ_Ï_ÌÌ_È_ËÂÌÚ_2" data-name="¡ÂÁ˚ÏˇÌÌ˚È „‡‰ËÂÌÚ 2" x1="3025.44" y1="88.86" x2="3055.56" y2="139.6" gradientTransform="translate(-2880.82)" gradientUnits="userSpaceOnUse">
      <stop offset="0" stop-color="#cad6e0"/>
      <stop offset="0.05" stop-color="#aec0d0"/>
      <stop offset="0.15" stop-color="#7998b1"/>
      <stop offset="0.25" stop-color="#4e7698"/>
      <stop offset="0.35" stop-color="#2c5c84"/>
      <stop offset="0.44" stop-color="#144976"/>
      <stop offset="0.53" stop-color="#053e6e"/>
      <stop offset="0.6" stop-color="#003a6b"/>
      <stop offset="1" stop-color="#00204c"/>
    </linearGradient>
  </defs>
  <title>robot</title>
  <g class="cls-1">
    <g id="prosabot">
      <g id="fondo">
        <rect class="cls-2" width="1024" height="620"/>
      </g>
      <g id="brazoDerecho">
        <g>
          <path class="cls-3" d="M225.5,199.12c-8.77-29.16-24.59-39-24.59-39s-6.8-1.2-13.25,7.87a13.74,13.74,0,0,0-1.92,12.39s27.08,27.09,33.95,35.94S228.8,210.07,225.5,199.12Z"/>
          <path class="cls-3" d="M225.5,199.12c-8.77-29.16-24.59-39-24.59-39s-6.8-1.2-13.25,7.87a13.74,13.74,0,0,0-1.92,12.39s27.08,27.09,33.95,35.94S228.8,210.07,225.5,199.12Z"/>
          <path class="cls-4" d="M223.55,203.83c-6.14-17.23-11.73-25.45-17.23-30-9.43-7.84-16.53-6.45-21-.5a13.78,13.78,0,0,1,2.33-5.31c6.45-9.07,13.25-7.87,13.25-7.87s15.82,9.82,24.59,39c2.28,7.57,1.91,17.12-.8,19.38C224.9,217.69,227.21,214.08,223.55,203.83Z"/>
          <path class="cls-3" d="M208.26,203a13.08,13.08,0,0,1,2.28,7.37,15.3,15.3,0,0,1-1.31,4.39,3.38,3.38,0,0,0,3.3-.71c1.64-1.38,2.11-3.79,2.44-4.84S208.26,203,208.26,203Z"/>
          <path class="cls-5" d="M206.31,181.35a98.58,98.58,0,0,0-8-7.69c-1.41-1.15,0-2.32,1.26-1.53,2.8,1.73,6.89,5.86,12,11.84,3,3.49,11,17.58,11.86,26.87A79.17,79.17,0,0,0,206.31,181.35Z"/>
          <path class="cls-6" d="M225.13,196.12l0,0a.41.41,0,0,0-.51.11c-3.54,4.95-10.92,8.66-17.61,5.78a.41.41,0,0,0-.5.15.29.29,0,0,0,.17.42c7.08,3,14.86-.83,18.57-6A.28.28,0,0,0,225.13,196.12Z"/>
        </g>
        <path class="cls-7" d="M201.56,170.6c.55-8-2.25-14.67-6.26-14.87s-7.69,6.12-8.24,14.14,2.26,14.66,6.26,14.87S201,178.61,201.56,170.6Z"/>
      </g>
      <g id="torso">
        <path class="cls-3" d="M110.59,151.24c-4.15-.27-18.78,14.41-14.38,28.65s29.34,61.75,35,78.39,9,20.73,17.06,22.24,20.17,2.06,34.23-27.31,16.23-62.35,16.87-78-1-21.89-6.48-23.68C180.1,147.34,110.59,151.24,110.59,151.24Z"/>
        <path class="cls-5" d="M176.81,249.75c10.9-30.89,9.59-64.1,8.58-79.84-.68-10.46-1.91-16.63-4.32-19.95-11.62-.65-28.59-.36-43,.1,7.69,20.28,19.06,54.44,21,89.63,1.26,23.48-2,34.95-6.47,40.82C159.9,279.05,168.69,272.74,176.81,249.75Z"/>
        <path class="cls-8" d="M194.09,152.81c0,3.05-21.51,7.77-43.22,7.81S107.64,156,107.63,153s21.52-3.32,43.23-3.35S194.08,149.77,194.09,152.81Z"/>
        <path class="cls-9" d="M181,153.43c0,2.11-14.82,5.38-29.77,5.4s-29.78-3.19-29.79-5.3,14.82-2.3,29.78-2.32S181,151.33,181,153.43Z"/>
        <path class="cls-10" d="M171.87,154.53c0,.8-10.22,1.82-20.18,1.84s-19.5-1-19.5-1.78,9.53-1.12,19.49-1.14S171.87,153.72,171.87,154.53Z"/>
        <path class="cls-11" d="M140.12,261.72c-2.3-12.45-5.74-53.17-13.93-81.91-4.1-14.4-13.76-24.56-23.1-21.34-6.64,2.28-9.26,13.72-6.88,21.42,4.41,14.24,29.34,61.75,35,78.39s9,20.73,17.06,22.24c4.14.78,9.36,1.29,15.38-2.4C155.49,279.4,143.94,282.34,140.12,261.72Z"/>
        <path class="cls-12" d="M168.85,267.78a14.82,14.82,0,0,1-4.94.82,22.76,22.76,0,0,1-5.54-.41,2.21,2.21,0,0,1-1.93-2.05h0a2,2,0,0,1,1.94-2.06s4.25.48,5.29.47a36.87,36.87,0,0,0,5.38-.51c1.06,0,2.06.32,1.74,1.85A2.65,2.65,0,0,1,168.85,267.78Z"/>
        <path class="cls-13" d="M168.17,267.55a15,15,0,0,1-4.27.58,23.77,23.77,0,0,1-4.79-.29c-.89-.18-1.67-.66-1.67-1.46h0a1.58,1.58,0,0,1,1.68-1.46s3.68.34,4.57.33a40.29,40.29,0,0,0,4.65-.36c.92,0,1.78.22,1.5,1.31C169.72,266.71,169.29,267.21,168.17,267.55Z"/>
        <path class="cls-6" d="M162.71,258.39c-9.78,0-21.77-2.12-34.7-7.43a.35.35,0,0,1,.26-.65c24.1,9.91,44.83,8.65,53.9,3.29a.35.35,0,0,1,.47.12.34.34,0,0,1-.12.48C178.21,256.75,171.32,258.39,162.71,258.39Z"/>
        <path class="cls-14" d="M162.46,257.62c-9.78,0-21.77-2.12-34.7-7.44a.33.33,0,0,1-.19-.45.34.34,0,0,1,.45-.19c24.1,9.9,44.83,8.65,53.9,3.29a.34.34,0,1,1,.35.59C178,256,171.06,257.62,162.46,257.62Z"/>
        <path class="cls-5" d="M197.53,159.27c1.85,37.66-3.58,55.48-3.58,55.48s5.19-28.46.4-55.95C193.69,155,197.24,153.39,197.53,159.27Z"/>
        <path class="cls-14" d="M111,156.64s4.28,2.58,20,4,36.29,1.17,36.29,1.17-19,2.52-36.37.65S111,156.64,111,156.64Z"/>
        <path class="cls-15" d="M166.2,265.13c-.76.06-1.64.11-2.51.12s-4.57-.33-4.57-.33a2,2,0,0,0-.35,0l1.69,3.08a31.72,31.72,0,0,0,3.44.1,15.82,15.82,0,0,0,4-.5Z"/>
        <g>
          <path class="cls-16" d="M162.43,185.07a13.3,13.3,0,0,1,8.3-12.32,14.24,14.24,0,0,1,1.48.19,12.25,12.25,0,0,1,10.18,11.66c0,.14,0,.27,0,.4v.14h0a7.59,7.59,0,0,0-7.59-7.58,7.49,7.49,0,0,0-2.47.42c.75-.27.72-.27-.05,0a7.28,7.28,0,0,0-9.8,7.06v.07a7.15,7.15,0,0,0,7.17,7.45,7.4,7.4,0,0,0,2.34-.38,7.59,7.59,0,0,0,10.4-6.92,12.14,12.14,0,0,1-10.11,11.92,15.26,15.26,0,0,1-1.55.19A13.31,13.31,0,0,1,162.43,185.07Z"/>
          <path class="cls-17" d="M167.23,185.16a7.58,7.58,0,0,0,4.77,7.05,7.4,7.4,0,0,1-2.34.38,7.15,7.15,0,0,1-7.17-7.45v-.07a7.28,7.28,0,0,1,9.8-7.06c.77-.29.8-.29.05,0A7.58,7.58,0,0,0,167.23,185.16Z"/>
          <path class="cls-18" d="M169.66,172.71c.36,0,.72,0,1.07,0a13.3,13.3,0,0,0,0,24.65c-.33,0-.67,0-1,0A12.36,12.36,0,0,1,157,185.07V185C157,178.21,162.28,172.71,169.66,172.71Z"/>
          <path class="cls-19" d="M182.4,185.16v0Z"/>
          <path class="cls-20" d="M172.21,192.14c.79.28.78.29,0,0Z"/>
          <path class="cls-21" d="M172.21,192.14c.79.28.78.29,0,0Z"/>
          <path class="cls-22" d="M174.81,192.75a7.52,7.52,0,0,1-2.81-.54l.21-.07c.78.29.79.28,0,0a7.39,7.39,0,0,0,4.88-7.07V185a7.27,7.27,0,0,0-4.8-7l.05,0a7.49,7.49,0,0,1,2.47-.42,7.59,7.59,0,0,1,7.59,7.58v.14A7.59,7.59,0,0,1,174.81,192.75Z"/>
          <path class="cls-23" d="M174.81,192.75a7.52,7.52,0,0,1-2.81-.54l.21-.07c.78.29.79.28,0,0a7.39,7.39,0,0,0,4.88-7.07V185a7.27,7.27,0,0,0-4.8-7l.05,0a7.49,7.49,0,0,1,2.47-.42,7.59,7.59,0,0,1,7.59,7.58v.14A7.59,7.59,0,0,1,174.81,192.75Z"/>
        </g>
      </g>
      <g id="brazoIzquierdo">
        <path class="cls-24" d="M120.11,179.34c3,10.39.62,20.18-5.27,21.88s-13.1-5.36-16.08-15.75-.63-20.19,5.27-21.88S117.13,169,120.11,179.34Z"/>
        <path class="cls-25" d="M112.36,199.48c-4.84,0-10.56-5.63-13.56-13.76-3.43-9.3-2-18.4,3.12-20.3s12.13,4.12,15.55,13.41,2,18.4-3.12,20.3A5.87,5.87,0,0,1,112.36,199.48ZM104,165.75a5.25,5.25,0,0,0-1.8.32c-4.79,1.77-6,10.47-2.71,19.41s9.87,14.76,14.66,13,6-10.48,2.72-19.41C113.93,171.21,108.49,165.75,104,165.75Z"/>
        <g>
          <path class="cls-3" d="M90.48,221.55c-5.58-29.9,3-41.92,7.59-47.51,1.35-1.64,6.35-6.81,11.26-4.08,5.77,3.21,6.33,15.28,6,17.35-1.23,8.06-9.58,38.6-11.27,49.71C102.24,249.1,92.87,234.33,90.48,221.55Z"/>
          <path class="cls-4" d="M115.35,187.31c-.21,1.37-.63,3.39-1.18,5.84-1.66,7.08-4.75,19.33-7.12,29.65-1.34,5.74-2.46,10.87-3,14.22l-.09.53c-1.07-14.06,6.19-39.88,7.25-52.66.29-3.5,1.52-11.08-4.94-15.71a6,6,0,0,1,3,.78C115.1,173.17,115.66,185.24,115.35,187.31Z"/>
          <path class="cls-5" d="M94.55,182.4c-9.09,14.67.84,49.37.84,49.37s-.87-26.35,1.7-38.56S97.66,177.4,94.55,182.4Z"/>
          <path class="cls-4" d="M105.11,230.36a37.77,37.77,0,0,0,1.82,4.84,8.6,8.6,0,0,0,3.16,1.43c-.67-2.07-3.17-13.21-2.34-16.64C108.05,218.77,104.38,228.4,105.11,230.36Z"/>
          <path class="cls-6" d="M108.12,220.22a.34.34,0,0,1-.33-.08c-4.61-4.26-12.3-6.28-17.45-1.62a.35.35,0,0,1-.47-.51c5.47-4.94,13.55-2.85,18.39,1.63a.34.34,0,0,1,0,.48A.31.31,0,0,1,108.12,220.22Z"/>
          <g>
            <path class="cls-26" d="M106.81,189c-.15,4.83-3.79,8.63-8.14,8.5s-7.75-4.15-7.6-9,3.79-8.63,8.13-8.5S107,184.2,106.81,189Z"/>
            <g>
              <path class="cls-27" d="M93.55,189.53a7.69,7.69,0,0,0,1.74,4.61,16.23,16.23,0,0,0,1.89,2.18s5-1.28,6.4-4.16c.29-.61,1.6-4.38,1.6-4.38s.4-.91-.34-1.33a24,24,0,0,1-2.55-1.44,7.23,7.23,0,0,0-1.69-1.09c-.48-.17-.7-.08-1.58,0a25.75,25.75,0,0,1-3-.08c-.88,0-1,1-1,1S93.6,188.85,93.55,189.53Z"/>
              <path class="cls-28" d="M95,184.82s-1.44,4-1.49,4.71c-.21,3.25,3.63,6.79,3.63,6.79h0s5-1.28,6.4-4.16c.29-.61,1.6-4.38,1.6-4.38s.4-.92-.34-1.33a24,24,0,0,1-2.55-1.44,7.23,7.23,0,0,0-1.69-1.09c-.48-.18-.7-.08-1.58,0a25.75,25.75,0,0,1-3-.08C95.15,183.81,95,184.82,95,184.82Zm.79-.16h.74a8.77,8.77,0,0,0,2.3,0c1.6-.31,2.08.5,2.85,1.05a14,14,0,0,0,2,1.13l.64.34a.65.65,0,0,1,0,.18l0,0c-.5,1.45-1.37,3.89-1.57,4.3a7,7,0,0,1-3.27,2.73,18.14,18.14,0,0,1-1.94.77,16.5,16.5,0,0,1-1.36-1.63,7.47,7.47,0,0,1-1.56-4.18,31.82,31.82,0,0,1,1.21-4.57Z"/>
              <path class="cls-29" d="M93.55,189.53c-.12,1.89,1.12,3.87,2.19,5.2A7.77,7.77,0,0,1,93.89,190c0-.68,1.49-4.71,1.49-4.71s.11-1,1-1a28.3,28.3,0,0,0,3,.07c.88-.06,1.09-.16,1.58,0a7.44,7.44,0,0,1,1.69,1.09,22.54,22.54,0,0,0,2.55,1.45l.06,0a.79.79,0,0,0-.4-.48,24,24,0,0,1-2.55-1.44,7.23,7.23,0,0,0-1.69-1.09c-.48-.18-.7-.08-1.58,0a25.75,25.75,0,0,1-3-.08c-.88,0-1,1-1,1S93.6,188.85,93.55,189.53Z"/>
              <path class="cls-28" d="M98.56,189.62a.3.3,0,0,0,.07.29l-.06.24a.07.07,0,0,0,.05.08l.19.05a.07.07,0,0,0,.08-.05L99,190a.32.32,0,1,0-.39-.38Z"/>
              <path class="cls-28" d="M98.56,188l-.12.46,1.39.36.12-.46a.72.72,0,1,0-1.39-.36Z"/>
              <path class="cls-28" d="M96,185.94s-.88,3-.91,3.48c-.19,2.41,2.5,5.19,2.5,5.19h0s3.56-1,4.57-3.15c.21-.46,1.18-3.28,1.18-3.28s.29-.69-.23-1a15.31,15.31,0,0,1-1.79-1c-.31-.23-.59-.42-.81-.56a4.31,4.31,0,0,0-.51-.28h0a2,2,0,0,0-1-.08,16.21,16.21,0,0,1-2.11,0C96.25,185.2,96,185.94,96,185.94Zm1.28,2.64a.38.38,0,0,1,.47-.28l.11,0,.12-.46a1.28,1.28,0,1,1,2.47.66l-.12.46.1,0a.39.39,0,0,1,.28.48l-.47,1.8a.41.41,0,0,1-.48.29l-2.68-.71a.39.39,0,0,1-.28-.48Z"/>
              <path class="cls-29" d="M95.13,189.42c-.14,1.73,1.21,3.66,2,4.6a6.87,6.87,0,0,1-1.64-4.16c0-.51.91-3.48.91-3.48s.21-.74.83-.73a16.33,16.33,0,0,0,2.11,0,1.91,1.91,0,0,1,1,.09h0a3.22,3.22,0,0,1,.5.28c.23.14.51.33.82.55a12.81,12.81,0,0,0,1.75,1,.62.62,0,0,0-.3-.41,15.31,15.31,0,0,1-1.79-1c-.31-.23-.58-.42-.81-.56a4.31,4.31,0,0,0-.51-.28h0a2,2,0,0,0-1-.08,16.21,16.21,0,0,1-2.11,0c-.62,0-.83.73-.83.73S95.17,188.91,95.13,189.42Z"/>
            </g>
          </g>
        </g>
      </g>
      <g id="cabeza">
        <g>
          <path class="cls-3" d="M113.88,139.66c9.88,12.72,40.11,10.29,48.53,9.49s22.7-2.27,27.84-17.78,2.57-39.16-11.56-51.46-52-10.29-64.81,6.28S110.46,135.25,113.88,139.66Z"/>
          <path class="cls-14" d="M116.49,89.57c.56-.2,12.24-9.27,33.38-11.08,7.27-.63,18.62,0,25.9,1-.73-.76-11.18-6.8-32.75-4.56A42.6,42.6,0,0,0,116.49,89.57Z"/>
          <path class="cls-5" d="M154.93,85.82c-6.81.11-13.63.59-20,3l-.15.06c6.66,14.1,7.2,32.48,3.3,45.61a27.89,27.89,0,0,1-5.66,10.66c11.76,2.07,24.92,1,30,.5,5.57-.53,13.7-1.36,20.06-6.34a31.45,31.45,0,0,0,1.84-4.82c3.95-13.31,3.34-32-3.57-46.16A109.71,109.71,0,0,0,154.93,85.82Z"/>
          <path class="cls-30" d="M130.32,98.34c3.92-5.33,14.61-6.73,28-7.53,17.29-1,23.14,2.1,24.9,4.1s4.83,11.92,4.17,21.57-.76,12.55-4.73,15-15.44,4.75-22.84,4.93c-14,.34-21.12-.34-25.81-3.1-2.4-1.41-5.45-9-5.93-18.36S128.28,101.11,130.32,98.34Z"/>
          <path class="cls-31" d="M157.85,92.3c-8.33.48-15.56,1.2-20.65,3,4.45,12.35,4.48,27,1.18,37.85l-.12.36c4.45,1.29,10.81,1.6,21,1.35,7.11-.16,18.1-2.36,21.92-4.6a6.85,6.85,0,0,0,3-3.11A64.51,64.51,0,0,0,182,96.44a2.79,2.79,0,0,0-.24-.31C180,94.26,174.43,91.34,157.85,92.3Z"/>
          <path class="cls-7" d="M121.23,107.21c-.24,5.24-3.16,9.37-6.54,9.22s-5.93-4.52-5.7-9.77,3.16-9.36,6.54-9.21S121.46,102,121.23,107.21Z"/>
          <path class="cls-32" d="M118.55,106.82c-.16,3.67-2,6.58-4,6.49s-3.58-3.15-3.41-6.82,2-6.59,4-6.5S118.72,103.14,118.55,106.82Z"/>
          <path class="cls-25" d="M118.61,107.09h0a12.92,12.92,0,0,0-1.54-7A5.63,5.63,0,0,0,112.58,97c-3.55-.16-6.66,4.12-6.9,9.55s2.46,10,6,10.12h.19C115.38,116.65,118.37,112.42,118.61,107.09Zm-6.06-9.43a5,5,0,0,1,3.92,2.8,12.21,12.21,0,0,1,1.45,6.6c-.23,5-3,9-6.18,8.89s-5.59-4.36-5.37-9.4,2.9-8.89,6-8.89Z"/>
          <path class="cls-5" d="M112.12,119.36l2.49.08s1,10.3,4,16.35,7.19,8,7.19,8-6.36-2.06-10.16-9.9C112.92,128.23,112.12,119.36,112.12,119.36Z"/>
          <path class="cls-33" d="M132.65,99.13h0a1.31,1.31,0,0,0,1.89.45c1.21-.83,3.05-2.06,4.11-2.63,1.66-.91,9.92-4,9.92-4a37.94,37.94,0,0,0-15.3,4A1.56,1.56,0,0,0,132.65,99.13Z"/>
        </g>
        <path class="cls-34" d="M126.16,106c0,1.63-.76,3-1.69,3s-1.69-1.32-1.69-3,.76-2.94,1.69-2.94S126.16,104.38,126.16,106Z"/>
      </g>
      <g id="ojos">
        <g>
          <rect class="cls-35" x="146.22" y="102.01" width="11.92" height="15.58" rx="4.28"/>
          <rect class="cls-35" x="147.47" y="103.68" width="9.42" height="12.23" rx="4.28"/>
          <rect class="cls-36" x="149.06" y="105.25" width="6.54" height="9.52" rx="2.65"/>
          <path class="cls-37" d="M154.9,108.92h-5.37a.26.26,0,0,1,0-.52h5.37a.26.26,0,1,1,0,.52Z"/>
          <path class="cls-37" d="M154.9,110.05h-5.37a.26.26,0,0,1-.26-.26.26.26,0,0,1,.26-.26h5.37a.26.26,0,0,1,.26.26A.26.26,0,0,1,154.9,110.05Z"/>
          <path class="cls-37" d="M154.9,111.23h-5.37a.26.26,0,0,1,0-.52h5.37a.26.26,0,1,1,0,.52Z"/>
          <path class="cls-37" d="M154.21,106.74h-4a.26.26,0,0,1-.26-.26.26.26,0,0,1,.26-.26h4a.26.26,0,0,1,.26.26A.25.25,0,0,1,154.21,106.74Z"/>
          <path class="cls-37" d="M154.9,107.92h-5.37a.26.26,0,0,1-.26-.26.26.26,0,0,1,.26-.26h5.37a.26.26,0,0,1,.26.26A.26.26,0,0,1,154.9,107.92Z"/>
          <path class="cls-37" d="M154.9,112.63h-5.37a.26.26,0,0,1,0-.52h5.37a.26.26,0,1,1,0,.52Z"/>
          <path class="cls-37" d="M154.9,113.76h-5.37a.26.26,0,0,1-.26-.26.26.26,0,0,1,.26-.26h5.37a.26.26,0,0,1,.26.26A.26.26,0,0,1,154.9,113.76Z"/>
        </g>
        <g>
          <rect class="cls-35" x="165.22" y="102.01" width="11.92" height="15.58" rx="4.28"/>
          <rect class="cls-35" x="166.47" y="103.68" width="9.42" height="12.23" rx="4.28"/>
          <rect class="cls-36" x="168.06" y="105.25" width="6.54" height="9.52" rx="2.65"/>
          <path class="cls-37" d="M173.9,108.92h-5.37a.26.26,0,0,1,0-.52h5.37a.26.26,0,1,1,0,.52Z"/>
          <path class="cls-37" d="M173.9,110.05h-5.37a.26.26,0,0,1-.26-.26.26.26,0,0,1,.26-.26h5.37a.26.26,0,0,1,.26.26A.26.26,0,0,1,173.9,110.05Z"/>
          <path class="cls-37" d="M173.9,111.23h-5.37a.26.26,0,0,1,0-.52h5.37a.26.26,0,1,1,0,.52Z"/>
          <path class="cls-37" d="M173.22,106.74h-4a.26.26,0,0,1-.26-.26.26.26,0,0,1,.26-.26h4a.26.26,0,0,1,.26.26A.26.26,0,0,1,173.22,106.74Z"/>
          <path class="cls-37" d="M173.9,107.92h-5.37a.26.26,0,0,1-.26-.26.26.26,0,0,1,.26-.26h5.37a.26.26,0,0,1,.26.26A.26.26,0,0,1,173.9,107.92Z"/>
          <path class="cls-37" d="M173.9,112.63h-5.37a.26.26,0,0,1,0-.52h5.37a.26.26,0,1,1,0,.52Z"/>
          <path class="cls-37" d="M173.9,113.76h-5.37a.26.26,0,0,1-.26-.26.26.26,0,0,1,.26-.26h5.37a.26.26,0,0,1,.26.26A.26.26,0,0,1,173.9,113.76Z"/>
        </g>
      </g>
      <path id="boca" class="cls-38" d="M154.67,125.57c5.38.69,15,1.22,15,1.22s-8.54.87-14.11-.09S148.88,124.83,154.67,125.57Z"/>
      <g id="sombra">
        <g id="Sombra-2" data-name="Sombra">
          <ellipse class="cls-39" cx="149.73" cy="296.27" rx="42.91" ry="9.63"/>
          <ellipse class="cls-40" cx="149.73" cy="296.27" rx="33.43" ry="6.13"/>
          <ellipse class="cls-40" cx="149.73" cy="296.27" rx="20.13" ry="3.69"/>
        </g>
      </g>
    </g>
  </g>
</svg>
